<?xml version="1.0" encoding="utf-8"?>
<!-- Generator: Adobe Illustrator 17.0.0, SVG Export Plug-In . SVG Version: 6.00 Build 0)  -->
<!DOCTYPE svg PUBLIC "-//W3C//DTD SVG 1.1//EN" "http://www.w3.org/Graphics/SVG/1.1/DTD/svg11.dtd">
<svg version="1.1" id="Layer_1" xmlns="http://www.w3.org/2000/svg" xmlns:xlink="http://www.w3.org/1999/xlink" x="0px" y="0px"
	 width="1698.003px" height="388.404px" viewBox="0 0 1698.003 388.404" enable-background="new 0 0 1698.003 388.404"
	 xml:space="preserve">
<text transform="matrix(1 0 0 1 473.2193 234.6094)" fill="#003A5C" font-family="'Ubuntu-Bold'" font-size="240.9698">ADVISORS</text>
<text transform="matrix(1 0 0 1 543.2921 351.5552)" font-family="'Ubuntu-Bold'" font-size="110.2342" letter-spacing="39">COMMERCIAL  </text>
<polygon fill="#003A5C" points="171.764,305.765 171.764,338.822 200.391,322.295 200.391,289.237 "/>
<polygon fill="#003A5C" points="200.391,57.848 200.391,24.791 171.764,41.32 171.764,74.374 "/>
<polygon fill="#003A5C" points="200.391,190.071 200.393,157.014 171.764,173.543 171.764,206.599 "/>
<polygon fill="#003A5C" points="171.765,239.655 171.764,272.71 200.391,256.182 200.391,223.127 "/>
<polygon fill="#003A5C" points="200.391,123.961 200.389,90.904 171.764,107.432 171.764,140.488 "/>
<polygon fill="#003A5C" points="28.627,239.653 28.627,206.597 0,223.125 0,256.181 "/>
<polygon fill="#003A5C" points="28.627,338.817 0,355.348 0.002,388.404 28.627,371.874 "/>
<polygon fill="#003A5C" points="28.627,272.708 0.002,289.235 0,322.29 28.627,305.763 "/>
<polygon fill="#008EB4" points="143.136,132.223 143.136,99.166 114.511,115.693 114.509,148.749 "/>
<polygon fill="#008EB4" points="143.136,165.279 114.509,181.805 114.509,214.863 143.136,198.333 "/>
<polygon fill="#008EB4" points="143.136,231.389 114.509,247.917 114.511,280.973 143.136,264.445 "/>
<polygon fill="#008EB4" points="143.138,297.501 114.509,314.03 114.509,347.083 143.136,330.557 "/>
<polygon fill="#008EB4" points="85.884,165.277 57.254,181.806 57.254,214.861 85.882,198.333 "/>
<polygon fill="#008EB4" points="57.254,247.917 57.254,280.974 85.882,264.445 85.882,231.389 "/>
<polygon fill="#008EB4" points="85.884,297.499 57.254,314.028 57.256,347.083 85.882,330.557 "/>
<polygon fill="#008EB4" points="28.627,305.763 0,322.29 0,355.348 28.627,338.817 "/>
<polygon fill="#008EB4" points="28.627,239.653 0,256.181 0.002,289.235 28.627,272.708 "/>
<polygon fill="#008EB4" points="171.764,107.432 200.389,90.904 200.391,57.848 171.764,74.374 "/>
<polygon fill="#008EB4" points="171.765,239.655 200.391,223.127 200.391,190.071 171.764,206.599 "/>
<polygon fill="#008EB4" points="200.393,157.014 200.391,123.961 171.764,140.488 171.764,173.543 "/>
<polygon fill="#008EB4" points="171.764,272.71 171.764,305.765 200.391,289.237 200.391,256.182 "/>
<polygon fill="#008EB4" points="171.764,338.822 171.764,371.877 200.391,355.35 200.391,322.295 "/>
<polygon fill="#008EB4" points="200.391,24.791 200.393,8.264 186.077,0 171.764,8.264 171.764,41.32 "/>
<polygon fill="#003A5C" points="85.882,231.389 85.882,198.333 57.254,214.861 57.254,247.917 "/>
<polygon fill="#003A5C" points="85.882,264.445 57.254,280.974 57.254,314.028 85.884,297.499 "/>
<polygon fill="#003A5C" points="85.882,330.557 57.256,347.083 57.256,380.14 85.882,363.613 "/>
<polygon fill="#003A5C" points="85.884,165.277 85.882,132.223 57.254,148.749 57.254,181.806 "/>
<polygon fill="#003A5C" points="114.509,347.083 114.511,380.14 143.138,363.613 143.136,330.557 "/>
<polygon fill="#003A5C" points="143.136,165.279 143.136,132.223 114.509,148.749 114.509,181.805 "/>
<polygon fill="#003A5C" points="143.136,198.333 114.509,214.863 114.509,247.917 143.136,231.389 "/>
<polygon fill="#003A5C" points="143.136,264.445 114.511,280.973 114.509,314.03 143.138,297.501 "/>
<polygon fill="#003A5C" points="143.136,99.166 143.134,66.111 114.509,82.64 114.511,115.693 "/>
<polygon fill="#003A5C" points="171.764,371.877 171.764,388.404 200.391,388.404 200.391,355.35 "/>
<polygon fill="#008EB4" points="114.511,380.14 114.511,388.404 143.137,388.404 143.138,363.613 "/>
<polygon fill="#008EB4" points="57.256,380.14 57.256,388.404 85.882,388.404 85.882,363.613 "/>
<polygon fill="#008EB4" points="0.002,388.404 28.627,388.404 28.627,371.874 "/>
<polygon fill="#003A5C" points="343.527,239.653 343.527,206.597 372.154,223.125 372.154,256.181 "/>
<polygon fill="#003A5C" points="343.527,338.817 372.152,355.348 372.152,388.404 343.525,371.874 "/>
<polygon fill="#003A5C" points="343.525,272.708 372.152,289.235 372.154,322.29 343.525,305.763 "/>
<polygon fill="#008EB4" points="229.018,132.223 229.018,99.166 257.643,115.693 257.643,148.749 "/>
<polygon fill="#008EB4" points="229.018,165.279 257.645,181.805 257.645,214.863 229.018,198.333 "/>
<polygon fill="#008EB4" points="229.018,231.389 257.645,247.917 257.643,280.973 229.018,264.445 "/>
<polygon fill="#008EB4" points="229.016,297.501 257.645,314.03 257.645,347.083 229.018,330.557 "/>
<polygon fill="#008EB4" points="286.271,165.277 314.9,181.806 314.898,214.861 286.272,198.333 "/>
<polygon fill="#008EB4" points="314.9,247.917 314.9,280.974 286.272,264.445 286.272,231.389 "/>
<polygon fill="#008EB4" points="286.271,297.499 314.9,314.028 314.898,347.083 286.272,330.557 "/>
<polygon fill="#008EB4" points="343.525,305.763 372.154,322.29 372.152,355.348 343.527,338.817 "/>
<polygon fill="#008EB4" points="343.527,239.653 372.154,256.181 372.152,289.235 343.525,272.708 "/>
<polygon fill="#003A5C" points="286.272,231.389 286.272,198.333 314.898,214.861 314.9,247.917 "/>
<polygon fill="#003A5C" points="286.272,264.445 314.9,280.974 314.9,314.028 286.271,297.499 "/>
<polygon fill="#003A5C" points="286.272,330.557 314.898,347.083 314.898,380.14 286.271,363.613 "/>
<polygon fill="#003A5C" points="286.271,165.277 286.272,132.223 314.9,148.749 314.9,181.806 "/>
<polygon fill="#003A5C" points="257.645,347.083 257.643,380.14 229.016,363.613 229.018,330.557 "/>
<polygon fill="#003A5C" points="229.018,165.279 229.018,132.223 257.643,148.749 257.645,181.805 "/>
<polygon fill="#003A5C" points="229.018,198.333 257.645,214.863 257.645,247.917 229.018,231.389 "/>
<polygon fill="#003A5C" points="229.018,264.445 257.643,280.973 257.645,314.03 229.016,297.501 "/>
<polygon fill="#003A5C" points="229.018,99.166 229.018,66.111 257.643,82.64 257.643,115.693 "/>
<polygon fill="#008EB4" points="257.643,380.14 257.643,388.404 229.016,388.404 229.016,363.613 "/>
<polygon fill="#008EB4" points="314.898,380.14 314.898,388.404 286.271,388.404 286.271,363.613 "/>
<polygon fill="#008EB4" points="372.152,388.404 343.527,388.404 343.525,371.874 "/>
</svg>
