<?xml version="1.0" encoding="utf-8"?>
<!-- Generator: Adobe Illustrator 17.0.0, SVG Export Plug-In . SVG Version: 6.00 Build 0)  -->
<!DOCTYPE svg PUBLIC "-//W3C//DTD SVG 1.1//EN" "http://www.w3.org/Graphics/SVG/1.1/DTD/svg11.dtd">
<svg version="1.1" id="Layer_1" xmlns="http://www.w3.org/2000/svg" xmlns:xlink="http://www.w3.org/1999/xlink" x="0px" y="0px"
	 width="612px" height="112.768px" viewBox="-108 323.9 612 112.768" enable-background="new -108 323.9 612 112.768"
	 xml:space="preserve">
<g>
	<path fill="#757575" d="M-108,323.9h44.867c8.546,0,14.956,2.137,19.704,5.697c5.223,4.273,8.071,10.445,8.071,18.042
		c0,8.784-3.561,14.244-10.683,17.567v0.475c9.496,3.086,14.956,11.632,14.956,21.84c0,9.733-3.798,17.33-9.971,22.078
		c-5.223,3.798-11.87,5.46-20.891,5.46H-108V323.9z M-67.643,359.509c4.748,0,8.309-2.611,8.309-8.071
		c0-5.223-3.561-7.834-8.546-7.834h-15.431v15.668h15.668V359.509z M-65.507,394.881c5.46,0,9.496-3.323,9.496-9.258
		c0-6.41-4.273-9.258-9.496-9.258h-17.567v18.754h17.567V394.881z"/>
	<path fill="#757575" d="M-27.049,323.9h23.502v91.396h-23.502V323.9z"/>
	<path fill="#757575" d="M1.201,382.774c0-20.653,13.294-34.422,33.947-34.422s33.71,14.006,33.71,34.422
		c0,20.653-13.057,34.422-33.71,34.422S1.201,403.427,1.201,382.774z M45.356,382.774c0-11.395-3.561-18.517-10.683-18.517
		s-10.445,7.122-10.445,18.517c0,11.395,3.323,18.754,10.445,18.754C41.795,401.291,45.356,394.169,45.356,382.774z"/>
	<path fill="#757575" d="M71.469,382.774c0-20.653,13.294-34.422,33.947-34.422s33.472,13.769,33.472,34.422
		c0,20.653-13.057,34.422-33.71,34.422C84.763,417.196,71.469,403.427,71.469,382.774z M115.625,382.774
		c0-11.395-3.561-18.517-10.683-18.517c-7.122,0-10.445,7.122-10.445,18.517c0,11.395,3.323,18.754,10.445,18.754
		C112.064,401.291,115.625,394.169,115.625,382.774z"/>
	<path fill="#757575" d="M143.637,350.014h21.84v9.733h0.475c4.273-7.597,10.208-11.632,19.704-11.632
		c8.309,0,14.481,4.036,17.567,11.158h0.475c5.223-8.546,12.107-11.158,20.178-11.158c15.193,0,21.603,11.158,21.603,26.113v40.832
		h-22.79v-36.796c0-6.647-2.137-10.92-7.834-10.92c-5.697,0-8.546,5.223-8.546,12.344v35.372h-22.79v-36.796
		c0-6.647-2.137-10.92-7.834-10.92c-5.697,0-8.546,5.223-8.546,12.344v35.372h-23.502V350.014z"/>
	<path fill="#757575" d="M274.203,406.513h-0.237v8.546h-21.84V323.9h22.79v32.76h0.475c4.273-5.697,10.208-8.784,18.517-8.784
		c16.38,0,25.876,14.718,25.876,34.422c0,22.078-10.208,34.897-27.3,34.897C285.361,417.196,278.002,413.872,274.203,406.513z
		 M296.281,382.062c0-10.445-3.798-17.33-10.683-17.33c-7.122,0-11.395,6.884-11.395,17.33c0,10.445,4.51,17.33,11.395,17.33
		C292.483,399.392,296.281,392.744,296.281,382.062z"/>
	<path fill="#757575" d="M322.394,382.537c0-20.416,13.531-34.422,32.998-34.422c9.733,0,17.092,3.086,22.79,8.546
		c7.597,7.359,10.92,18.754,10.683,32.048h-43.68c0.95,8.071,4.748,12.344,11.632,12.344c4.036,0,7.597-1.899,9.021-6.172h22.078
		c-3.798,14.956-15.431,22.315-31.811,22.315C335.926,416.959,322.394,403.19,322.394,382.537z M345.184,375.652h20.891
		c-0.475-7.834-4.748-11.87-10.208-11.87C349.457,363.545,345.896,368.056,345.184,375.652z"/>
	<path fill="#757575" d="M414.74,361.171h0.475c4.748-9.021,10.92-12.582,18.754-12.582c1.899,0,3.086,0.237,3.798,0.712v19.941
		h-0.475c-13.531-2.374-21.365,4.036-21.365,18.754v27.3H392.9v-65.283h21.84V361.171z"/>
	<path fill="#757575" d="M440.141,415.297h22.078c0.95,2.849,3.798,5.46,9.258,5.46c7.359,0,9.971-4.51,9.971-11.395v-4.748h-0.475
		c-3.561,4.273-8.546,7.359-15.668,7.359c-14.006,0-26.351-10.445-26.351-30.861c0-18.754,9.971-33.235,25.164-33.235
		c8.784,0,14.006,3.561,17.567,9.021h0.475v-7.122H504v56.5c0,10.445-3.561,18.517-9.021,23.265
		c-5.697,4.985-13.769,7.122-23.027,7.122C454.385,436.9,442.278,429.778,440.141,415.297z M482.397,380.163
		c0-8.071-3.798-14.718-10.445-14.718c-6.41,0-10.445,5.697-10.445,14.718c0,8.784,4.036,14.956,10.445,14.956
		C478.362,395.118,482.397,388.709,482.397,380.163z"/>
</g>
</svg>
