<svg id="Layer_1" data-name="Layer 1" xmlns="http://www.w3.org/2000/svg" viewBox="0 0 4924 1979.58"><defs><style>.cls-1{fill:#19636a;}</style></defs><title>business-insider-1</title><path class="cls-1" d="M-785.23-51.33c-22.65-16.18-47.46-23.74-89.53-25.9-19.42-1.08-30.2-1.08-46.38-1.08-4.31,0-6.47,2.16-6.47,7.55V184.89c0,71.2,3.24,89.54,37.75,103.55,29.12,11.87,53.93,12.95,78.74,12.95,48.55,0,130.52-25.9,130.52-138.08C-680.6,96.43-703.25,5.83-785.23-51.33Zm-142.38-86.3c0,8.63,3.24,10.79,7.55,11.86,9.71,2.17,25.89,3.24,50.7,3.24,35.59,0,59.33-4.31,77.66-20.49,28-22.66,44.23-61.48,44.23-114.33,0-72.28-42.07-167.2-134.84-167.2-15.1,0-24.81,0-35.59,2.16-7.56,2.16-9.71,6.47-9.71,18.34v266.43ZM-1057.06-156c0-164,0-194.16-2.16-228.68-2.16-36.67-10.79-53.93-46.38-61.48-8.63-2.15-27-3.24-42.07-3.24-11.86,0-18.34-2.16-18.34-9.71s7.55-9.7,23.73-9.72c57.17,0,125.13,3.24,146.7,3.24,52.85,0,94.93-3.24,131.6-3.23,195.24,0,229.76,104.63,229.76,161.8,0,88.45-50.7,141.3-110,188.77,88.46,30.19,196.32,106.79,196.32,233,0,115.42-89.53,235.15-288,235.15-12.94,0-44.22-2.16-75.51-3.24-32.36-2.15-64.72-3.24-80.9-3.24-11.87,0-35.6,0-61.49,1.08-24.81,0-52.85,2.15-74.43,2.15-14,0-21.58-3.24-21.58-10.79,0-5.39,4.32-8.63,17.27-8.63a176.36,176.36,0,0,0,38.83-4.31c21.57-4.32,27-28,31.28-59.33,5.39-45.3,5.39-130.52,5.39-229.76V-156m654.72,74.43c0-139.15,1.08-165-1.08-194.17-2.16-32.36-10.79-41-41-49.62-7.55-2.17-23.73-3.24-36.67-3.24q-16.19,0-16.18-9.71c0-6.47,6.47-8.63,20.49-8.63,50.7,0,114.34,2.16,142.38,2.16,23.74,0,87.38-2.16,121.9-2.16,14,0,20.49,2.16,20.49,8.63s-5.39,9.71-15.09,9.71c-10.79,0-16.18,1.08-28,3.24-24.82,4.31-32.36,17.26-34.53,49.62-2.15,29.12-2.15,55-2.15,194.17V46.83c0,133.75,25.89,185.53,72.27,222.2,42.07,33.45,87.38,36.67,119.74,36.67,41,0,89.53-11.86,127.27-48.54,52.85-49.62,55-129.44,55-223.29V-81.54c0-139.15-1.08-165-2.16-194.17-2.16-31.28-9.71-41-39.91-49.62-7.55-2.17-23.73-3.24-34.52-3.24S9.71-331.8,9.71-338.27s6.47-8.63,19.42-8.63c48.54,0,112.18,2.16,113.26,2.16,10.8,0,74.44-2.16,111.1-2.16,12.95,0,19.43,2.16,19.43,8.63s-5.4,9.71-16.18,9.71-16.18,1.08-28,3.24c-25.89,4.31-32.35,17.26-34.52,49.62-1.08,29.12-2.16,55-2.16,194.17V16.62C192,119.09,181.23,227,101.4,292.76,34.52,348.85-37.75,358.55-99.23,358.55-148.86,358.55-247,356.4-316,296c-48.54-42.07-86.3-110-86.3-242.7V-81.54M361.33,334.82C346.23,328.36,343,324,343,303.54c0-49.62,4.31-106.78,5.38-121.88,0-14,4.31-23.74,11.87-23.74,8.63,0,9.71,8.63,9.71,15.11,0,11.86,3.24,31.28,8.63,47.46,20.5,68,91.69,90.62,151,90.62,82,0,131.59-51.78,131.59-116.49,0-39.91-9.72-79.82-93.85-129.45l-55-32.36C400.17-33,363.49-94.5,363.49-175.39c0-112.18,107.87-184.45,239.46-184.45,61.48,0,110,8.63,134.84,15.1,8.63,2.15,12.94,5.39,12.94,11.87,0,11.87-3.23,37.75-3.23,110,0,19.41-4.32,29.12-11.87,29.12q-9.71,0-9.7-16.18c0-8.63-4.32-36.68-24.81-60.41-14-17.25-44.22-43.14-105.71-43.14C527.45-313.46,466-277.87,466-215.3c0,41,15.1,73.35,100.31,120.81l38.84,21.57c125.12,69,164,139.16,164,222.22,0,67.95-25.9,123-94.93,171.51-45.3,32.36-107.87,37.74-158.56,37.74-55,0-113.26-5.37-154.24-23.72M928.7-81.54c0-139.15,0-165-1.07-194.17-2.16-31.28-11.87-42.07-32.36-48.54-10.79-3.24-22.66-4.31-34.52-4.31-9.7,0-15.11-2.16-15.11-10.79,0-5.39,7.55-7.55,22.66-7.55,35.6,0,100.31,2.16,127.28,2.16,23.74,0,85.22-2.16,121.9-2.16,11.86,0,19.42,2.16,19.42,7.55,0,8.63-5.39,10.79-15.11,10.79s-17.25,1.07-28,3.24c-25.89,4.31-33.44,17.26-35.6,49.62-2.15,29.12-2.15,55-2.15,194.17V80.27c0,88.45,0,161.8,4.31,200.64,3.24,24.8,9.72,38.83,37.75,43.14,12.94,2.17,34.52,3.24,48.54,3.24,10.79,0,15.1,5.39,15.1,9.72,0,6.47-7.55,9.7-18.34,9.7-62.56,0-127.28-3.24-153.17-3.24-21.57,0-86.29,3.24-124,3.24-11.87,0-18.34-3.24-18.34-9.7,0-4.32,3.24-9.72,15.1-9.72,14,0,24.81-1.08,33.44-3.24,19.42-4.31,24.81-17.25,28-44.22,4.31-37.75,4.31-111.11,4.31-199.56V-81.54m453.05,303.1c2.15,71.19,14,92.76,32.36,99.24,16.18,5.39,34.52,6.47,49.62,6.47,10.79,0,16.18,4.32,16.18,9.72,0,7.55-8.63,9.7-21.57,9.7-61.48,0-105.72-3.24-123-3.24-8.63,0-53.93,3.24-102.47,3.24-12.95,0-21.57-1.07-21.57-9.7,0-5.39,6.47-9.72,15.1-9.72,12.95,0,30.2-1.08,43.16-4.31,24.8-6.47,28-31.29,29.12-111.11l8.63-543.65c0-18.34,6.47-31.28,16.18-31.28,11.86,0,24.81,14,41,30.21,11.87,11.87,154.26,157.49,292.32,292.32,64.73,63.64,190.93,193.09,205,206h4.31l-9.72-407.75c-1.06-56.09-9.7-72.27-32.34-80.9-14-5.39-36.69-5.39-49.63-5.39-11.86,0-15.11-4.31-15.11-9.71,0-7.55,9.71-8.63,23.73-8.63,49.62,0,100.32,2.16,120.82,2.16,10.79,0,46.37-2.16,92.76-2.16,12.95,0,21.57,1.08,21.57,8.63,0,5.39-5.39,9.71-16.18,9.71-9.72,0-17.26,0-29.13,3.24-25.89,7.55-33.44,23.73-34.52,75.51l-10.79,578.17c0,20.49-7.55,29.12-15.11,29.12-16.18,0-29.12-9.71-38.83-19.43-59.33-55-178-168.27-277.21-264.27-103.55-99.24-203.87-210.35-222.22-226.53h-3.23l10.8,374.31m802.5-303.1c0-139.15,0-165-1.09-194.17-2.15-31.28-10.78-41-41-49.62-7.54-2.17-23.72-3.24-37.74-3.24-9.72,0-16.18-3.24-16.18-9.71s7.55-8.63,21.57-8.63c49.62,0,110,2.16,137,2.16,30.2,0,240.54,1.07,258.88,0,17.26-1.08,32.36-4.31,39.91-5.39,5.4-1.08,10.79-4.31,15.1-4.31,5.4,0,6.47,4.31,6.47,8.63,0,6.47-5.39,17.27-7.56,59.33-1.07,9.71-3.24,49.62-5.38,60.4-1.08,4.31-3.24,15.1-10.79,15.1-6.47,0-7.56-4.31-7.56-11.86,0-6.47-1.07-22.66-6.46-33.45-7.56-16.18-15.11-29.12-62.57-33.44C2450.66-291.9,2337.41-294,2318-294c-4.31,0-6.47,3.24-6.47,8.63V-58.89c0,5.4,1.08,9.72,6.47,9.72,21.57,0,144.55,0,166.12-2.15,22.66-2.17,36.67-4.32,45.3-14,7.55-6.48,10.79-11.87,15.11-11.87s7.55,4.31,7.55,9.72S2549.89-47,2544.52-.63c-2.17,18.34-4.32,55-4.32,61.48,0,7.55-1.08,20.5-9.7,20.5-6.47,0-8.65-3.24-8.65-7.55-1.07-9.72-1.07-21.57-3.23-33.45C2513.23,22,2501.35,8,2465.76,4.76,2448.5,2.59,2340.64.44,2316.92.44c-4.32,0-5.4,4.32-5.4,9.72V83.5c0,31.28-1.07,108.94,0,135.91C2313.68,282,2342.79,296,2439.88,296c24.81,0,64.72-1.08,89.53-11.87,23.73-10.79,34.51-30.2,41-67.95,2.17-9.72,4.32-14,10.8-14,7.55,0,8.63,11.87,8.63,21.57,0,20.5-7.56,83.07-13,101.4-6.47,23.73-15.09,23.73-50.69,23.73-71.19,0-128.36-1.08-174.74-3.23-46.39-1.08-82-2.17-110-2.17-10.8,0-31.29,1.08-53.93,1.08-22.66,1.08-46.39,2.15-65.81,2.15-11.86,0-18.34-3.24-18.34-9.7,0-4.32,3.24-9.72,15.11-9.72,14,0,24.8-1.08,33.44-3.24,19.42-4.31,24.8-21.56,28-48.54,4.32-38.83,4.32-111.1,4.32-195.24V-81.54m524.2,416.36c-15.1-6.47-18.34-10.79-18.34-31.28,0-49.62,4.31-106.78,5.4-121.88,0-14,4.31-23.74,11.86-23.74,8.63,0,9.71,8.63,9.71,15.11,0,11.86,3.25,31.28,8.64,47.46,20.48,68,91.69,90.62,151,90.62,82,0,131.59-51.78,131.59-116.49,0-39.91-9.7-79.82-93.84-129.45l-55-32.36C2747.27-33,2710.59-94.5,2710.59-175.39c0-112.18,107.87-184.45,239.47-184.45,61.48,0,110,8.63,134.83,15.1,8.63,2.15,12.95,5.39,12.95,11.87,0,11.87-3.24,37.75-3.24,110,0,19.41-4.32,29.12-11.87,29.12q-9.7,0-9.7-16.18c0-8.63-4.31-36.68-24.81-60.41-14-17.25-44.22-43.14-105.71-43.14-68,0-129.45,35.59-129.45,98.15,0,41,15.1,73.35,100.32,120.81l38.83,21.57c125.13,69,164,139.16,164,222.22,0,67.95-25.89,123-94.92,171.51-45.3,32.36-107.86,37.74-158.57,37.74-55,0-113.25-5.37-154.24-23.72m537.16,0c-15.09-6.47-18.34-10.79-18.34-31.28,0-49.62,4.31-106.78,5.39-121.88,0-14,4.31-23.74,11.87-23.74,8.63,0,9.7,8.63,9.7,15.11,0,11.86,3.24,31.28,8.63,47.46,20.49,68,91.69,90.62,151,90.62,82,0,131.6-51.78,131.6-116.49,0-39.91-9.7-79.82-93.84-129.45l-55-32.36C3284.43-33,3247.76-94.5,3247.76-175.39c0-112.18,107.87-184.45,239.46-184.45,61.49,0,110,8.63,134.85,15.1,8.62,2.15,12.93,5.39,12.93,11.87,0,11.87-3.24,37.75-3.24,110,0,19.41-4.31,29.12-11.87,29.12q-9.71,0-9.7-16.18c0-8.63-4.32-36.68-24.81-60.41-14-17.25-44.22-43.14-105.71-43.14-68,0-129.44,35.59-129.44,98.15,0,41,15.09,73.35,100.31,120.81l38.83,21.57c125.12,69,164,139.16,164,222.22,0,67.95-25.9,123-94.93,171.51-45.3,32.36-107.86,37.74-158.57,37.74-55,0-113.25-5.37-154.23-23.72M-1012.85,996.27c0-164,0-194.16-2.16-228.68-2.16-36.68-12.95-55-36.67-60.41-11.87-3.24-25.89-4.32-38.83-4.32-10.79,0-17.26-2.15-17.26-10.77,0-6.48,8.63-8.64,25.89-8.64,41,0,108.94,3.24,140.23,3.24,27,0,90.61-3.24,131.59-3.24,14,0,22.66,2.16,22.66,8.64,0,8.62-6.47,10.77-17.26,10.77s-19.42,1.08-32.36,3.26c-29.12,5.38-37.75,23.73-39.91,61.48-2.16,34.52-2.16,64.71-2.16,228.68v189.84c0,104.63,0,189.86,4.31,236.23,3.24,29.12,10.79,48.53,43.16,52.85,15.1,2.15,38.83,4.31,55,4.31,11.87,0,17.26,3.24,17.26,8.63,0,7.55-8.63,10.79-20.49,10.79-71.2,0-139.15-3.24-168.28-3.24-24.81,0-92.76,3.24-135.91,3.24-14,0-21.57-3.24-21.57-10.79,0-5.39,4.31-8.63,17.26-8.63a176.76,176.76,0,0,0,38.84-4.31c21.57-4.32,28-22.66,31.28-53.94,5.39-45.29,5.39-130.52,5.39-235.15V996.27m549,377.53c2.16,71.19,14,92.76,32.36,99.24,16.18,5.39,34.52,6.47,49.62,6.47,10.79,0,16.18,4.31,16.18,9.72,0,7.55-8.63,9.7-21.57,9.7-61.48,0-105.71-3.24-123-3.24-8.63,0-53.93,3.24-102.47,3.24-12.95,0-21.57-1.08-21.57-9.7,0-5.4,6.47-9.72,15.1-9.72,12.95,0,30.2-1.08,43.15-4.31,24.81-6.47,28-31.28,29.12-111.1l8.63-543.65c0-18.34,6.47-31.28,16.18-31.28,11.87,0,24.81,14,41,30.19,11.87,11.87,154.26,157.49,292.32,292.32,64.72,63.64,190.93,193.08,204.95,206h4.31L10.81,910C9.72,853.87,1.1,837.7-21.56,829.06c-14-5.38-36.67-5.38-49.62-5.38-11.86,0-15.1-4.32-15.1-9.72,0-7.55,9.72-8.63,23.73-8.63,49.62,0,100.32,2.17,120.81,2.17,10.79,0,46.38-2.17,92.77-2.17,12.94,0,21.57,1.08,21.57,8.63,0,5.39-5.4,9.72-16.18,9.72-9.72,0-17.26,0-29.13,3.23-25.89,7.56-33.44,23.74-34.52,75.51L82,1480.59c0,20.49-7.54,29.12-15.09,29.12-16.18,0-29.12-9.7-38.84-19.43-59.32-55-178-168.27-277.22-264.27C-352.71,1126.78-453,1015.67-471.37,999.5h-3.24l10.79,374.3M377.5,1487.06c-15.09-6.47-18.34-10.8-18.34-31.29,0-49.62,4.31-106.78,5.39-121.88,0-14,4.31-23.73,11.87-23.73,8.63,0,9.71,8.63,9.71,15.1,0,11.87,3.24,31.29,8.63,47.46,20.49,68,91.69,90.6,151,90.6,82,0,131.59-51.77,131.59-116.49,0-39.9-9.71-79.82-93.84-129.43l-55-32.36c-112.18-65.81-148.85-127.29-148.85-208.19,0-112.18,107.86-184.45,239.46-184.45,61.49,0,110,8.63,134.84,15.11,8.63,2.16,12.95,5.39,12.95,11.86,0,11.87-3.24,37.75-3.24,110,0,19.42-4.31,29.12-11.87,29.12q-9.7,0-9.71-16.18c0-8.63-4.31-36.67-24.81-60.4-14-17.26-44.22-43.14-105.71-43.14-68,0-129.44,35.59-129.44,98.16,0,41,15.1,73.36,100.31,120.81l38.84,21.57c125.13,69,164,139.15,164,222.2,0,68-25.89,123-94.92,171.51-45.3,32.36-107.87,37.75-158.57,37.75-55,0-113.24-5.39-154.24-23.73m658-416.38c0-139.15,0-165-1.07-194.16-2.16-31.28-11.87-42.07-32.36-48.54-10.79-3.24-22.66-4.31-34.52-4.31-9.72,0-15.11-2.17-15.11-10.79,0-5.39,7.55-7.56,22.66-7.56,35.6,0,100.31,2.17,127.28,2.17,23.74,0,85.21-2.17,121.9-2.17,11.86,0,19.42,2.17,19.42,7.56,0,8.63-5.39,10.79-15.11,10.79s-17.25,1.08-28,3.23c-25.89,4.32-33.44,17.27-35.6,49.62-2.15,29.13-2.15,55-2.15,194.16V1232.5c0,88.46,0,161.8,4.31,200.64,3.24,24.81,9.72,38.83,37.75,43.14,12.94,2.17,34.52,3.24,48.54,3.24,10.79,0,15.09,5.39,15.09,9.72,0,6.47-7.54,9.7-18.34,9.7-62.56,0-127.28-3.24-153.17-3.24-21.57,0-86.29,3.24-124,3.24-11.87,0-18.34-3.24-18.34-9.7,0-4.32,3.24-9.72,15.11-9.72,14,0,24.8-1.08,33.44-3.24,19.42-4.31,24.81-17.25,28-44.22,4.31-37.75,4.31-111.1,4.31-199.55V1070.69m611.61,101.4c0,97.09,1.08,167.2,2.16,185.54,1.07,22.66,3.25,55,10.79,64.72,11.87,17.26,49.62,36.67,124,36.67,86.29,0,149.94-15.09,207.11-62.56,61.48-50.69,80.91-132.68,80.91-227.59,0-116.49-46.39-192-88.46-228.68-87.38-77.67-190.93-87.37-265.35-87.37-19.43,0-50.71,2.15-58.26,6.47-8.63,3.24-11.87,7.56-11.87,18.34-1.08,31.29-1.08,106.8-1.08,179.06v115.41ZM1519.8,1070.69c0-139.15,0-165-1.09-194.16-2.16-31.28-10.79-41-41-49.62-7.56-2.15-23.74-3.23-37.75-3.23-9.71,0-16.18-3.24-16.18-9.72s7.55-8.63,21.57-8.63c49.62,0,110,2.17,137,2.17,29.12,0,97.08-2.17,154.26-2.17,118.65,0,278.29,0,381.84,104.63C2165.93,957.43,2208,1034,2208,1143c0,115.42-49.62,202.79-103.55,255.64-43.14,43.14-143.47,107.86-318.21,107.86-34.52,0-75.5-3.24-113.25-5.4-37.75-3.24-72.28-5.39-96-5.39-10.79,0-31.29,1.08-53.93,1.08-22.65,1.07-46.39,2.15-65.81,2.15-11.86,0-18.33-3.24-18.33-9.7,0-4.32,3.24-9.72,15.09-9.72,14,0,24.81-1.08,33.45-3.24,19.42-4.31,24.81-21.56,28-48.53,4.31-38.83,4.31-111.1,4.31-195.24v-161.8m930.86,0c0-139.15,0-165-1.08-194.16-2.16-31.28-10.78-41-41-49.62-7.54-2.15-23.73-3.23-37.75-3.23-9.7,0-16.18-3.24-16.18-9.72s7.56-8.63,21.57-8.63c49.62,0,110,2.17,137,2.17,30.2,0,240.54,1.07,258.88,0,17.27-1.08,32.36-4.31,39.91-5.39,5.4-1.09,10.79-4.32,15.11-4.32,5.39,0,6.47,4.32,6.47,8.63,0,6.47-5.39,17.27-7.56,59.33-1.07,9.7-3.24,49.62-5.39,60.4-1.08,4.31-3.23,15.11-10.79,15.11-6.47,0-7.56-4.31-7.56-11.87,0-6.47-1.08-22.65-6.47-33.44-7.56-16.18-15.11-29.12-62.56-33.44-16.18-2.16-129.44-4.31-148.86-4.31-4.31,0-6.47,3.23-6.47,8.63v226.52c0,5.39,1.08,9.7,6.47,9.7,21.57,0,144.55,0,166.12-2.15,22.64-2.16,36.67-4.31,45.3-14,7.56-6.47,10.79-11.87,15.11-11.87s7.54,4.31,7.54,9.7-2.17,20.49-7.54,66.88c-2.18,18.34-4.33,55-4.33,61.49,0,7.54-1.08,20.5-9.7,20.5-6.48,0-8.65-3.24-8.65-7.56-1.08-9.7-1.08-21.57-3.23-33.44-5.39-18.34-17.27-32.36-52.85-35.6-17.25-2.16-125.13-4.31-148.85-4.31-4.33,0-5.4,4.31-5.4,9.71v73.35c0,31.28-1.08,108.94,0,135.91,2.17,62.56,31.28,76.58,128.37,76.58,24.8,0,64.72-1.08,89.53-11.87,23.73-10.77,34.53-30.2,41-67.95,2.17-9.71,4.31-14,10.8-14,7.54,0,8.63,11.86,8.63,21.57,0,20.48-7.56,83-13,101.38-6.47,23.73-15.09,23.73-50.68,23.73-71.2,0-128.37-1.07-174.74-3.24-46.39-1.07-82-2.15-110-2.15-10.8,0-31.29,1.08-53.93,1.08-22.65,1.07-46.38,2.15-65.82,2.15-11.85,0-18.32-3.24-18.32-9.7,0-4.32,3.23-9.72,15.09-9.72,14,0,24.82-1.08,33.44-3.24,19.42-4.31,24.81-21.56,28-48.53,4.31-38.82,4.31-111.09,4.31-195.23v-161.8m765.85,71.2c0,9.7,2.15,12.94,8.63,16.18,20.49,6.48,48.53,8.63,72.28,8.63,37.75,0,50.69-3.24,66.86-15.11,29.13-20.49,61.49-60.4,61.49-135.91,0-129.44-88.46-162.88-144.55-162.88-23.72,0-46.37,1.07-56.08,3.24-6.47,2.16-8.63,5.38-8.63,12.94v272.91Zm-120.81-71.2c0-139.15,0-165-1.08-194.16-2.16-31.28-10.79-41-41-49.62-7.55-2.15-23.72-3.23-37.74-3.23-9.71,0-16.18-3.24-16.18-9.72s7.55-8.63,21.57-8.63c49.62,0,110,2.17,129.44,2.17,32.36,0,118.66-2.17,147.78-2.17,60.41,0,129.45,5.4,180.14,38.84,27,18.34,66.88,64.72,66.88,126.2,0,68-38.84,128.36-131.6,202.79,84.14,103.55,151,186.62,208.19,243.78,52.85,52.85,86.29,57.17,101.4,60.4,9.71,2.16,15.1,2.16,22.65,2.16s11.87,5.39,11.87,9.72c0,7.55-6.47,9.7-18.34,9.7h-90.6c-52.86,0-78.75-5.39-103.55-18.34-41-20.49-76.58-63.64-129.44-134.83-37.77-49.62-77.66-111.11-89.54-125.13-5.39-5.39-10.8-6.47-17.27-6.47l-85.21-2.15c-4.31,0-7.55,2.15-7.55,7.55v12.94c0,85.21,1.07,156.41,5.39,195.24,3.24,27,7.55,44.23,36.67,48.53,14,2.17,34.52,3.24,46.38,3.24,7.55,0,11.87,5.39,11.87,9.72,0,6.47-7.56,9.7-19.41,9.7-55,0-133.77-3.24-147.78-3.24-18.34,0-78.75,3.24-116.5,3.24-11.86,0-18.34-3.24-18.34-9.7,0-4.32,3.24-9.72,15.11-9.72,14,0,24.81-1.08,33.44-3.24,19.43-4.31,24.8-21.56,28-48.53,4.32-38.83,4.32-111.1,4.32-195.24v-161.8" transform="translate(1166 468.79)"/></svg>